Coordinates
version=1
nRows=20
nColumns=32
inDegrees=no

Units are S.I. units (second, meters, Newtons, ...)
If the header above contains a line with 'inDegrees', this indicates whether rotational values are in degrees (yes) or radians (no).

endheader
time	pelvis_tilt	pelvis_list	pelvis_rotation	pelvis_tx	pelvis_ty	pelvis_tz	hip_flexion_r	hip_adduction_r	hip_rotation_r	knee_angle_r	ankle_angle_r	subtalar_angle_r	mtp_angle_r	hip_flexion_l	hip_adduction_l	hip_rotation_l	knee_angle_l	ankle_angle_l	subtalar_angle_l	mtp_angle_l	lumbar_extension	lumbar_bending	lumbar_rotation	arm_flex_r	arm_add_r	arm_rot_r	elbow_flex_r	arm_flex_l	arm_add_l	arm_rot_l	elbow_flex_l
0	-0.00610871	0.0551222	0.0791474	0.862038	1.02985	-0.325181	0.0363646	-0.114218	-0.0610356	2.01437	-0.688901	-0.927223	0.0617299	0.484817	0.0404311	-0.612331	0.305281	-0.540819	0.107924	0.145791	-0.303992	0.0234422	-0.113004	-0.390211	-0.222804	0.166605	1.77914	-0.696405	-0.149405	0.441843	0.706772
0.005	0.00306457	0.0667515	0.0853308	0.861371	1.02674	-0.325504	0.0704148	-0.132614	-0.0546169	2.08708	-0.661146	-0.925849	0.0617053	0.451939	0.0504082	-0.563912	0.342871	-0.44035	0.108336	0.145771	-0.316877	0.0109318	-0.139299	-0.397084	-0.212443	0.160164	1.70257	-0.650387	-0.158418	0.465198	0.686154
0.01	0.0109081	0.0776009	0.0925436	0.860637	1.02355	-0.326026	0.108216	-0.150673	-0.0455922	2.1544	-0.632541	-0.920989	0.0616808	0.420737	0.0608176	-0.516679	0.381895	-0.339908	0.10037	0.145752	-0.328338	-0.00025695	-0.167883	-0.404787	-0.205062	0.15475	1.63147	-0.606857	-0.165153	0.484493	0.671792
0.015	0.0174345	0.0876584	0.100777	0.859832	1.02028	-0.32675	0.149752	-0.168375	-0.0339876	2.21625	-0.603104	-0.912628	0.0616562	0.391168	0.0716378	-0.470661	0.422191	-0.240121	0.0840606	0.145732	-0.33839	-0.0101004	-0.198727	-0.413341	-0.200659	0.15034	1.56589	-0.565822	-0.169603	0.499714	0.663704
0.02	0.0226741	0.0968785	0.110003	0.858955	1.01697	-0.327677	0.194964	-0.185646	-0.0199191	2.27247	-0.572895	-0.900739	0.0616316	0.363105	0.0827784	-0.425858	0.463304	-0.142636	0.0596967	0.145712	-0.347055	-0.018523	-0.231729	-0.422808	-0.199214	0.146863	1.50602	-0.527298	-0.171764	0.510842	0.661908
0.025	0.0266796	0.105126	0.120145	0.858006	1.01368	-0.328805	0.24374	-0.202281	-0.00367339	2.32272	-0.542057	-0.885341	0.061607	0.336321	0.0939693	-0.382197	0.504475	-0.0499149	0.0281689	0.145692	-0.354345	-0.0253493	-0.266653	-0.433313	-0.200657	0.144179	1.45218	-0.491275	-0.171651	0.517894	0.666378
0.03	0.0295308	0.112104	0.131034	0.856998	1.01049	-0.330117	0.295889	-0.217828	0.0142204	2.36651	-0.510869	-0.866622	0.0615824	0.310475	0.10461	-0.339589	0.544731	0.0353987	-0.0088044	0.145672	-0.360223	-0.0302445	-0.303027	-0.445065	-0.204852	0.142056	1.40477	-0.457684	-0.16933	0.520991	0.676977
0.035	0.0313379	0.117309	0.142362	0.855962	1.00748	-0.331565	0.351139	-0.231517	0.0329604	2.40325	-0.479769	-0.84509	0.0615579	0.285122	0.113694	-0.298062	0.583012	0.111117	-0.0487474	0.145653	-0.364574	-0.0327064	-0.340081	-0.458365	-0.211569	0.14015	1.36428	-0.426368	-0.164944	0.52042	0.693415
0.04	0.0322359	0.120079	0.153647	0.854953	1.00475	-0.333072	0.40913	-0.242297	0.0515086	2.43231	-0.449359	-0.821676	0.0615333	0.259736	0.119882	-0.257878	0.618277	0.175827	-0.0887419	0.145633	-0.367207	-0.0321449	-0.376725	-0.473592	-0.220481	0.138005	1.33112	-0.397075	-0.158744	0.516659	0.715244
0.045	0.0323679	0.119714	0.164234	0.854044	1.00234	-0.33453	0.469433	-0.248968	0.0687075	2.45315	-0.420361	-0.797755	0.0615087	0.23375	0.121713	-0.219587	0.649568	0.228905	-0.125863	0.145613	-0.367882	-0.0280288	-0.411619	-0.491166	-0.231156	0.13509	1.30563	-0.369481	-0.151091	0.510358	0.741895
0.05	0.0318633	0.115639	0.173315	0.853322	1.0003	-0.335811	0.531573	-0.250376	0.0834582	2.46541	-0.393561	-0.775089	0.0614841	0.206579	0.117892	-0.184103	0.676034	0.270316	-0.157546	0.145593	-0.366357	-0.0200512	-0.443289	-0.511501	-0.243093	0.130874	1.28792	-0.343234	-0.142438	0.50228	0.772734
0.055	0.0308194	0.107576	0.180004	0.852876	0.998631	-0.33678	0.59504	-0.245623	0.0949131	2.46897	-0.369736	-0.755679	0.0614595	0.177632	0.107576	-0.152728	0.696921	0.300305	-0.181836	0.145573	-0.362456	-0.00826308	-0.470309	-0.534944	-0.25576	0.124922	1.27791	-0.318007	-0.13329	0.493203	0.807134
0.06	0.0292927	0.0956529	0.183441	0.852789	0.997332	-0.33732	0.659282	-0.234264	0.102625	2.46396	-0.349583	-0.741545	0.0614349	0.14633	0.0905932	-0.127091	0.711553	0.319055	-0.197546	0.145554	-0.356135	0.00686599	-0.491504	-0.561726	-0.268662	0.117	1.27527	-0.293557	-0.124147	0.483807	0.844528
0.065	0.0273022	0.0804332	0.182923	0.853118	0.99639	-0.337345	0.723704	-0.216438	0.106607	2.45074	-0.333657	-0.734472	0.0614103	0.112154	0.0675523	-0.108939	0.719342	0.326444	-0.204363	0.145534	-0.347509	0.0244793	-0.506127	-0.591917	-0.281392	0.107129	1.27947	-0.269759	-0.115438	0.474586	0.884439
0.07	0.0248289	0.062858	0.178023	0.853885	0.995783	-0.33682	0.787675	-0.192895	0.107287	2.42984	-0.322323	-0.735782	0.0613857	0.0747323	0.0397941	-0.0998424	0.719843	0.321932	-0.202869	0.145514	-0.336837	0.0434484	-0.513974	-0.625415	-0.293671	0.0955847	1.28984	-0.24663	-0.107489	0.465807	0.926481
0.075	0.0218086	0.0441135	0.168676	0.855075	0.995489	-0.335766	0.85055	-0.164932	0.105395	2.40189	-0.315704	-0.746171	0.0613612	0.0339421	0.00923028	-0.100873	0.712812	0.304626	-0.194478	0.145494	-0.324453	0.0625328	-0.515407	-0.661959	-0.305346	0.0828321	1.30557	-0.224312	-0.100506	0.457535	0.970329
0.08	0.0181315	0.0254667	0.15521	0.856639	0.995487	-0.334254	0.911705	-0.134237	0.101807	2.36755	-0.313617	-0.76562	0.0613366	-0.00999628	-0.0219094	-0.112341	0.698279	0.273497	-0.18127	0.145474	-0.310685	0.0805503	-0.511288	-0.701168	-0.316368	0.069424	1.32585	-0.203042	-0.0945853	0.449704	1.01565
0.085	0.013658	0.00810924	0.138318	0.858508	0.995743	-0.332404	0.970545	-0.102688	0.097391	2.32744	-0.315525	-0.793386	0.061312	-0.0564828	-0.0513623	-0.133617	0.676602	0.227703	-0.165773	0.145455	-0.295802	0.0965197	-0.502839	-0.742571	-0.326743	0.0558928	1.34984	-0.183098	-0.0897423	0.442201	1.06207
0.09	0.00825998	-0.00697111	0.118957	0.860595	0.996216	-0.330374	1.02649	-0.0721357	0.0928975	2.2821	-0.320542	-0.828089	0.0612874	-0.104575	-0.0771026	-0.163082	0.648515	0.166962	-0.150739	0.145435	-0.280011	0.109754	-0.491458	-0.785641	-0.336478	0.0426548	1.37677	-0.164749	-0.0859409	0.434948	1.10908
0.095	0.00188224	-0.0190694	0.0982202	0.862804	0.99687	-0.328334	1.07893	-0.0441973	0.0888949	2.23195	-0.327489	-0.867846	0.0612628	-0.15309	-0.0975592	-0.198243	0.61516	0.0919297	-0.138891	0.145415	-0.263514	0.119897	-0.478514	-0.829791	-0.345531	0.0299457	1.40588	-0.148199	-0.0831246	0.427959	1.15605
